<svg width="12" height="12" viewBox="0 0 12 12" fill="none" xmlns="http://www.w3.org/2000/svg">
<g clip-path="url(#clip0_2559_628)">
<path d="M10.6632 6.94466L10.5703 2.37564C10.568 2.25385 10.5416 2.13275 10.4928 2.01927C10.4439 1.90579 10.3736 1.80216 10.2857 1.71431C10.1979 1.62645 10.0942 1.55609 9.98075 1.50726C9.86727 1.45842 9.74617 1.43207 9.62438 1.4297L5.05537 1.33682C4.80921 1.33186 4.5751 1.4249 4.40455 1.59545C4.23399 1.76601 4.14096 2.00012 4.14592 2.24628C4.15087 2.49244 4.25341 2.73048 4.43098 2.90805C4.60855 3.08561 4.84659 3.18815 5.09275 3.19311L7.42142 3.24L1.68783 8.9736C1.51733 9.1441 1.42433 9.37813 1.42928 9.62421C1.43424 9.87029 1.53675 10.1083 1.71425 10.2858C1.89176 10.4633 2.12973 10.5658 2.37581 10.5707C2.62189 10.5757 2.85593 10.4827 3.02643 10.3122L8.76002 4.5786L8.80691 6.90727C8.81187 7.15343 8.91441 7.39148 9.09198 7.56905C9.26954 7.74661 9.50759 7.84915 9.75375 7.85411C9.99991 7.85907 10.234 7.76603 10.4046 7.59548C10.5751 7.42492 10.6682 7.19081 10.6632 6.94466Z" fill="#059669"/>
</g>
<defs>
<clipPath id="clip0_2559_628">
<rect width="12" height="12" fill="white"/>
</clipPath>
</defs>
</svg>
